#!OML:ASF F:\VICON\USERDATA\INSTALL\rory3\rory3.ASF
:FULLY-SPECIFIED
:DEGREES
442
root 0.779308 15.8712 33.3964 -0.882473 -2.72695 5.39721
lowerback 11.6159 1.1831 -7.92321
upperback -4.54005 0.297993 0.0502208
thorax -11.6029 0.734393 4.46567
lowerneck -10.175 -5.85668 -4.77566
upperneck 20.5232 -8.00884 3.41715
head 8.38156 -3.8403 1.09718
rclavicle 8.00108e-015 -1.35174e-014
rhumerus -49.8351 -19.0526 -66.6722
rradius 14.0321
rwrist 20.1307
rhand -7.02132 19.7526
rfingers 7.12502
rthumb 18.8503 -9.354
lclavicle 8.00108e-015 -1.35174e-014
lhumerus -37.9443 11.5746 79.3621
lradius 18.4489
lwrist -4.9559
lhand -4.76781 19.1864
lfingers 7.12502
lthumb 21.0165 48.0677
rfemur -11.0164 -0.799815 14.2371
rtibia 67.4906
rfoot 25.3731 -13.019
rtoes 8.83047
lfemur -15.1138 -10.0764 -30.796
ltibia 28.2867
lfoot -8.02939 6.1147
ltoes 24.4359
443
root 0.785649 15.8766 33.5094 -0.959975 -2.7824 5.53294
lowerback 11.5741 1.11831 -8.13143
upperback -4.41004 0.188193 0.0632232
thorax -11.4185 0.686993 4.62184
lowerneck -9.95814 -5.75091 -4.77955
upperneck 20.2247 -7.87655 3.50987
head 8.23958 -3.77481 1.15257
rclavicle 7.23079e-015 3.18055e-014
rhumerus -49.869 -18.5309 -67.197
rradius 14.3736
rwrist 19.7313
rhand -7.07153 19.7645
rfingers 7.12502
rthumb 18.802 -9.34682
lclavicle 7.23079e-015 3.18055e-014
lhumerus -37.7528 11.6044 79.3898
lradius 18.849
lwrist -4.94938
lhand -4.78403 19.3124
lfingers 7.12502
lthumb 21.0009 48.1954
rfemur -12.3676 -0.971765 14.1445
rtibia 68.9936
rfoot 23.1082 -12.3034
rtoes 9.19957
lfemur -14.3765 -10.0617 -31.0667
ltibia 27.9726
lfoot -8.50289 6.10863
ltoes 24.6175
444
root 0.789254 15.8808 33.6221 -1.00597 -2.85619 5.52402
lowerback 11.4374 1.05354 -8.23036
upperback -4.23949 0.112851 0.123646
thorax -11.1336 0.644152 4.76036
lowerneck -10.0664 -5.68497 -4.72154
upperneck 20.1479 -7.78257 3.48957
head 8.22579 -3.72668 1.14428
rclavicle -2.74074e-014 2.3059e-014
rhumerus -49.8608 -18.2468 -67.5596
rradius 14.7671
rwrist 19.3667
rhand -7.17617 19.5692
rfingers 7.12502
rthumb 18.7014 -9.55179
lclavicle -2.74074e-014 2.3059e-014
lhumerus -37.4857 11.342 79.6287
lradius 19.2674
lwrist -4.57777
lhand -4.9071 19.2244
lfingers 7.12502
lthumb 20.8827 48.1204
rfemur -13.711 -1.07941 14.2932
rtibia 70.3157
rfoot 20.5769 -10.5367
rtoes 7.57364
lfemur -13.7346 -10.0715 -31.1552
ltibia 27.7675
lfoot -9.03066 6.08361
ltoes 25.5703
445
root 0.797393 15.8783 33.7167 -0.985186 -2.86923 5.33381
lowerback 12.0161 0.987547 -8.07258
upperback -4.52261 -0.00639632 0.238793
thorax -11.7841 0.617473 4.82708
lowerneck -9.82229 -5.6131 -4.72807
upperneck 20.3111 -7.66783 3.33675
head 8.22502 -3.69094 1.11306
rclavicle 8.57259e-015 -2.8625e-014
rhumerus -50.3902 -17.6168 -67.8176
rradius 15.1011
rwrist 18.5596
rhand -7.00363 19.2238
rfingers 7.12502
rthumb 18.8673 -9.88112
lclavicle 8.57259e-015 -2.8625e-014
lhumerus -37.8315 11.1648 79.6873
lradius 19.4945
lwrist -4.47097
lhand -5.03368 19.096
lfingers 7.12502
lthumb 20.7611 48.0054
rfemur -15.1688 -1.21646 14.6613
rtibia 71.5298
rfoot 17.6063 -8.92066
rtoes 6.68145
lfemur -13.2316 -10.1292 -31.0428
ltibia 27.6084
lfoot -9.42815 6.00296
ltoes 26.4175
446
root 0.809482 15.8837 33.8231 -1.04351 -2.87371 5.15962
lowerback 12.1451 0.903304 -7.85722
upperback -4.47925 -0.0842251 0.320372
thorax -11.7965 0.567628 4.81357
lowerneck -9.75631 -5.55212 -4.66755
upperneck 20.2881 -7.57223 3.22659
head 8.19408 -3.65298 1.0794
rclavicle -6.03808e-015 5.1684e-015
rhumerus -50.482 -17.3999 -68.0369
rradius 15.3036
rwrist 18.0351
rhand -6.9209 19.2367
rfingers 7.12502
rthumb 18.9469 -9.86052
lclavicle -6.03808e-015 5.1684e-015
lhumerus -37.6452 10.9592 79.8627
lradius 19.7045
lwrist -4.37361
lhand -5.13678 19.2967
lfingers 7.12502
lthumb 20.662 48.2169
rfemur -16.4114 -1.35779 15.0004
rtibia 72.5555
rfoot 14.7196 -6.64951
rtoes 2.55795
lfemur -12.5579 -10.2939 -31.0104
ltibia 27.3969
lfoot -9.79013 6.02002
ltoes 27.1534
447
root 0.826519 15.8885 33.936 -1.10723 -2.76818 5.44202
lowerback 12.08 0.782628 -8.0174
upperback -4.35918 -0.267482 0.271502
thorax -11.5948 0.47819 4.88956
lowerneck -9.85188 -5.41165 -4.49267
upperneck 20.2568 -7.36443 3.04808
head 8.17768 -3.55726 1.01212
rclavicle 2.58669e-014 -2.66371e-014
rhumerus -50.4114 -16.9587 -68.5256
rradius 15.6611
rwrist 17.1979
rhand -6.78197 19.1497
rfingers 7.12502
rthumb 19.0805 -9.93442
lclavicle 2.58669e-014 -2.66371e-014
lhumerus -37.3555 10.7966 80.0638
lradius 20.0015
lwrist -4.17768
lhand -4.95054 19.5533
lfingers 7.12502
lthumb 20.8409 48.454
rfemur -17.6709 -1.74509 14.7003
rtibia 73.4809
rfoot 12.0067 -4.12443
rtoes -4.24027
lfemur -11.8144 -10.4358 -31.5114
ltibia 27.0621
lfoot -10.0349 6.0177
ltoes 27.1085
448
root 0.838419 15.8917 34.0439 -1.09152 -2.67426 5.62741
lowerback 12.0806 0.662372 -8.1731
upperback -4.29675 -0.452275 0.273106
thorax -11.4977 0.395903 5.01953
lowerneck -10.0348 -5.27752 -4.38892
upperneck 20.313 -7.17607 2.97644
head 8.21495 -3.46417 0.986268
rclavicle -8.12532e-015 -1.98785e-015
rhumerus -50.2948 -16.0552 -69.4289
rradius 16.1547
rwrist 15.7953
rhand -6.84308 18.7234
rfingers 7.12502
rthumb 19.0217 -10.3665
lclavicle -8.12532e-015 -1.98785e-015
lhumerus -37.0305 10.3873 80.3888
lradius 20.3041
lwrist -3.52523
lhand -4.84123 19.5811
lfingers 7.12502
lthumb 20.9459 48.4701
rfemur -19.0774 -1.95816 14.5653
rtibia 74.1703
rfoot 9.31543 -2.59942
rtoes -9.07335
lfemur -11.1294 -10.601 -31.8828
ltibia 26.6106
lfoot -10.0142 6.18664
ltoes 27.1159
449
root 0.846485 15.8963 34.1546 -1.15139 -2.58688 5.76096
lowerback 12.1587 0.560668 -8.33075
upperback -4.24879 -0.61842 0.294542
thorax -11.4655 0.326695 5.16949
lowerneck -10.1615 -5.20329 -4.32331
upperneck 20.4937 -7.07477 2.91745
head 8.28972 -3.41431 0.96193
rclavicle -3.18055e-015 -7.95139e-015
rhumerus -50.294 -15.1283 -70.2876
rradius 16.6782
rwrist 14.2458
rhand -6.95126 18.6423
rfingers 7.12502
rthumb 18.9177 -10.4578
lclavicle -3.18055e-015 -7.95139e-015
lhumerus -36.8157 9.99397 80.7049
lradius 20.5279
lwrist -2.92252
lhand -5.21518 19.1558
lfingers 7.12502
lthumb 20.5867 48.0842
rfemur -20.2694 -2.11465 14.4997
rtibia 74.5345
rfoot 6.83533 -1.74622
rtoes -11.1998
lfemur -10.3452 -10.691 -32.213
ltibia 26.1749
lfoot -9.96641 6.3249
ltoes 27.1991
450
root 0.85419 15.8945 34.2647 -1.17506 -2.46904 5.99316
lowerback 12.1178 0.469771 -8.53243
upperback -4.19478 -0.771198 0.262336
thorax -11.3569 0.260476 5.2799
lowerneck -10.0976 -5.17143 -4.28009
upperneck 20.4345 -7.03529 2.90018
head 8.25421 -3.39537 0.955734
rclavicle 3.2551e-015 1.59028e-015
rhumerus -50.3281 -14.9511 -70.4907
rradius 17.0019
rwrist 13.5769
rhand -6.95936 19.078
rfingers 7.12502
rthumb 18.9099 -10.0228
lclavicle 3.2551e-015 1.59028e-015
lhumerus -36.6774 9.72968 80.8941
lradius 20.8631
lwrist -2.55034
lhand -5.44877 18.7197
lfingers 7.12502
lthumb 20.3622 47.6722
rfemur -21.3948 -2.27489 14.3344
rtibia 74.6692
rfoot 4.83891 -1.43333
rtoes -11.1146
lfemur -9.6891 -10.939 -32.6485
ltibia 25.9505
lfoot -10.3844 6.46805
ltoes 26.7255
451
root 0.859801 15.8888 34.3653 -1.13819 -2.34225 5.93082
lowerback 12.1209 0.332225 -8.5019
upperback -4.15411 -0.939053 0.35534
thorax -11.2839 0.178004 5.401
lowerneck -10.0822 -5.153 -4.30815
upperneck 20.3674 -6.98594 2.82284
head 8.22522 -3.38231 0.941043
rclavicle 8.17502e-015 -9.93923e-015
rhumerus -50.3273 -14.8242 -70.585
rradius 17.358
rwrist 13.1663
rhand -6.90238 19.25
rfingers 7.12502
rthumb 18.9647 -9.84543
lclavicle 8.17502e-015 -9.93923e-015
lhumerus -36.4969 9.97796 80.9079
lradius 21.2873
lwrist -2.65803
lhand -5.35168 18.8779
lfingers 7.12502
lthumb 20.4555 47.8204
rfemur -22.5739 -2.32576 14.6047
rtibia 74.5836
rfoot 3.3291 -1.4947
rtoes -12.0571
lfemur -9.24007 -11.2292 -32.7233
ltibia 25.9011
lfoot -10.807 6.55538
ltoes 26.2549
452
root 0.865902 15.8912 34.4655 -1.10123 -2.26401 5.55272
lowerback 12.1914 0.194167 -8.13222
upperback -4.10068 -1.05038 0.506973
thorax -11.2443 0.101983 5.38349
lowerneck -9.99624 -5.16939 -4.53064
upperneck 20.2223 -7.02223 3.08441
head 8.18078 -3.39308 1.06332
rclavicle -1.54307e-014 -5.56597e-015
rhumerus -50.2305 -14.4891 -71.0069
rradius 17.7059
rwrist 12.3148
rhand -6.89559 19.17
rfingers 7.12502
rthumb 18.9712 -9.92483
lclavicle -1.54307e-014 -5.56597e-015
lhumerus -36.2191 9.82434 81.1072
lradius 21.7077
lwrist -2.31648
lhand -5.37572 19.0136
lfingers 7.12502
lthumb 20.4324 47.9586
rfemur -23.6736 -2.27139 15.2341
rtibia 74.2518
rfoot 2.06639 -2.00479
rtoes -11.1205
lfemur -8.88334 -11.4553 -32.4546
ltibia 25.9486
lfoot -11.1335 6.67603
ltoes 25.9451
453
root 0.874013 15.8902 34.5708 -1.09196 -2.14235 5.37149
lowerback 12.2778 0.0851777 -7.91202
upperback -4.08959 -1.15794 0.592793
thorax -11.2651 0.0396735 5.37815
lowerneck -10.9291 -5.20905 -4.2049
upperneck 21.0634 -7.02807 2.59811
head 8.60431 -3.40143 0.8152
rclavicle -1.67476e-014 -2.06736e-014
rhumerus -50.1725 -13.9338 -71.566
rradius 18.0555
rwrist 11.1156
rhand -6.87023 18.9195
rfingers 7.12502
rthumb 18.9956 -10.1729
lclavicle -1.67476e-014 -2.06736e-014
lhumerus -36.0176 9.3294 81.4503
lradius 22.1514
lwrist -1.85948
lhand -5.24934 19.1708
lfingers 7.12502
lthumb 20.5538 48.1027
rfemur -24.6216 -2.32285 15.5733
rtibia 73.7547
rfoot 1.02236 -2.67171
rtoes -8.10628
lfemur -8.4833 -11.8056 -32.4341
ltibia 26.0499
lfoot -11.6644 6.87425
ltoes 26.1313
